<svg xmlns="http://www.w3.org/2000/svg" width="605" height="67" viewBox="0 0 605 67">
  <g id="Group_4" data-name="Group 4" transform="translate(-2059 -1734)">
    <g id="copy01" transform="translate(2059 1734)">
      <rect id="Rectangle_1" data-name="Rectangle 1" width="605" height="67" fill="#ffdb00"/>
      <path id="Path_28" data-name="Path 28" d="M33.033,29.406H44.592l.832.851a13.058,13.058,0,0,1-2.5,7.9A12.885,12.885,0,0,1,35.752,42.5l-.444-1.591a11.331,11.331,0,0,0,6.307-3.772,10.967,10.967,0,0,0,2.108-6.066H33.033Z" fill="#ffdb00"/>
      <path id="Path_29" data-name="Path 29" d="M51.343,28.037V36.6H49.679V28.037ZM52.526,43.5l-.48-1.609a8.2,8.2,0,0,0,4.346-2.7A6.383,6.383,0,0,0,57.724,35.1V27.945h1.664V35.1a8.2,8.2,0,0,1-1.683,5.123A10.208,10.208,0,0,1,52.526,43.5Z" fill="#ffdb00"/>
      <path id="Path_30" data-name="Path 30" d="M63.53,33.955H78.362V35.62H63.53Z" transform="translate(65.668)" fill="#ffdb00"/>
      <path id="Path_31" data-name="Path 31" d="M93.963,32.605l.813.943a10.846,10.846,0,0,1-2.9,6.306,11.941,11.941,0,0,1-6.2,3.2l-.352-1.627a10.309,10.309,0,0,0,5.363-2.737,8.874,8.874,0,0,0,2.274-4.42H81.239V32.605Zm-.8-3.939v1.665H82.5V28.666Z" transform="translate(32.578)" fill="#ffdb00"/>
      <path id="Path_32" data-name="Path 32" d="M99.3,31.4c-1.054-.37-1.9-.666-1.923-.666l.536-1.572c.019,0,3.458,1.165,5.03,1.794l-.61,1.553C101.592,32.217,100.335,31.773,99.3,31.4Zm9.413-.13,1.665.093a10.978,10.978,0,0,1-2.9,6.861,10.763,10.763,0,0,1-8.045,3.236h-.037c-.518,0-1.054-.037-1.609-.093l.167-1.646c.5.037.98.074,1.442.074a9.161,9.161,0,0,0,6.88-2.719,9.279,9.279,0,0,0,2.44-5.807Z" transform="translate(39)" fill="#ffdb00"/>
      <path id="Path_33" data-name="Path 33" d="M113.2,42.24l-.5-1.59a14.293,14.293,0,0,0,6.843-4.216,11.567,11.567,0,0,0,2.515-5.678h-8.267V29.091h9.229l.832.943a14.539,14.539,0,0,1-2.146,6.288c.833.777,3.662,3.385,4.79,4.661l-1.239,1.109c-.592-.684-1.849-1.886-2.922-2.9-.666-.629-1.276-1.2-1.646-1.535a16.134,16.134,0,0,1-7.49,4.586Z" transform="translate(45.224)" fill="#ffdb00"/>
      <path id="Path_34" data-name="Path 34" d="M129.063,39.577a5.49,5.49,0,0,1-.722-2.885,8.236,8.236,0,0,1,.592-3.052,8.011,8.011,0,0,1,7.453-4.919h.111c3.384.055,6.232,2.256,6.769,5.141a9.914,9.914,0,0,1,.13,1.442,7.5,7.5,0,0,1-3.625,6.38l-.851-1.332a5.879,5.879,0,0,0,2.9-5.049,6.5,6.5,0,0,0-.111-1.165c-.314-1.96-2.478-3.772-5.159-3.847.037.647.055,1.276.055,1.85a20.01,20.01,0,0,1-.406,4.309,8.338,8.338,0,0,1-1.424,3.329,3.427,3.427,0,0,1-2.737,1.442,3.682,3.682,0,0,1-.444-.037,3.431,3.431,0,0,1-2.533-1.609Zm.851-2.885a3.966,3.966,0,0,0,.481,2.053,1.8,1.8,0,0,0,1.405.888,1.046,1.046,0,0,0,.24.019,1.834,1.834,0,0,0,1.5-.832,6.713,6.713,0,0,0,1.128-2.719,18.857,18.857,0,0,0,.37-3.958c0-.537-.019-1.091-.056-1.7a6.4,6.4,0,0,0-4.586,3.791,6.619,6.619,0,0,0-.482,2.46Z" transform="translate(51.652)" fill="#ffdb00"/>
      <path id="Path_35" data-name="Path 35" d="M149.564,43.442h-1.628v-9.08c-.518.758-1.035,1.516-1.757,2.4l-.888-1.405a22.289,22.289,0,0,0,4.2-8.489l1.59.444a30.557,30.557,0,0,1-1.516,4.069Zm7.3-9.8V41.02h4.642v1.535H150.674V41.02h4.531V33.641h-5.031V32.125h5.031v-5.16h1.664v5.16h5.289v1.516Z" transform="translate(58.726)" fill="#ffdb00"/>
      <path id="Path_36" data-name="Path 36" d="M177.342,38.135v2.848h-1.554v-.8h-4v1.794a1.3,1.3,0,0,1-.462,1.165,2.391,2.391,0,0,1-1.313.277c-.666,0-1.387-.055-2.2-.129l-.277-1.646a9.223,9.223,0,0,0,2.163.277c.37,0,.5-.129.5-.388v-1.35h-6.085V38.893H170.2v-.8h-7.6V36.8h7.6v-.74h-6.1V34.769h6.1v-.8h-5.179V30.516H170.2v-.8h-7.139V28.389H170.2V26.5h1.59v1.886h7.269V29.72h-7.269v.8h5.289v3.458h-5.289v.8h5.549v2h2.182v1.369Zm-7.139-6.38h-3.662v.962H170.2Zm5.363,0h-3.774v.962h3.773Zm.222,4.309h-4v.74h4Zm0,2.034h-4v.8h4Z" transform="translate(65.732)" fill="#ffdb00"/>
      <path id="Path_37" data-name="Path 37" d="M182.16,39.577a5.49,5.49,0,0,1-.722-2.885,8.236,8.236,0,0,1,.592-3.052,8.011,8.011,0,0,1,7.453-4.919h.111c3.384.055,6.232,2.256,6.769,5.141a9.912,9.912,0,0,1,.13,1.442,7.5,7.5,0,0,1-3.625,6.38l-.851-1.332a5.879,5.879,0,0,0,2.9-5.049,6.5,6.5,0,0,0-.111-1.165c-.314-1.96-2.478-3.772-5.159-3.847.037.647.055,1.276.055,1.85a20.009,20.009,0,0,1-.406,4.309,8.338,8.338,0,0,1-1.424,3.329,3.427,3.427,0,0,1-2.737,1.442,3.683,3.683,0,0,1-.444-.037,3.431,3.431,0,0,1-2.533-1.609Zm.851-2.885a3.966,3.966,0,0,0,.481,2.053,1.8,1.8,0,0,0,1.405.888,1.045,1.045,0,0,0,.24.019,1.834,1.834,0,0,0,1.5-.832,6.713,6.713,0,0,0,1.128-2.719,18.856,18.856,0,0,0,.37-3.958c0-.537-.019-1.091-.056-1.7a6.4,6.4,0,0,0-4.586,3.791,6.619,6.619,0,0,0-.481,2.46Z" transform="translate(73.021)" fill="#ffdb00"/>
      <path id="Path_38" data-name="Path 38" d="M214.617,34.713a26.45,26.45,0,0,1-3.292-1.923V34.1h-8.674v-.851a23.714,23.714,0,0,1-3.236,1.831l-1.054-1.313a14.435,14.435,0,0,0,7.656-6.787h1.7a18.141,18.141,0,0,0,7.916,6.288Zm-3.606,8.729V42.425h-8.026v1.017H201.32V35.823h11.337v7.619Zm0-6.2h-8.026v3.736h8.026Zm.111-4.6a17.888,17.888,0,0,1-4.2-4.05,14.491,14.491,0,0,1-3.5,4.05Z" transform="translate(80.255)" fill="#ffdb00"/>
      <path id="Path_39" data-name="Path 39" d="M219.021,33.29V43.442H217.45V27.353h6.935V33.29Zm3.883-4.624H219.02V29.7H222.9Zm0,2.256H219.02V32H222.9Zm-.074,10.19v1.109h-1.5V34.436h7.49v6.676Zm4.494-5.345H222.83v1.313h4.494Zm0,2.607H222.83v1.406h4.494Zm3.606,4.957a17.727,17.727,0,0,1-2.293-.148l-.223-1.627a15.177,15.177,0,0,0,2.22.185c.333,0,.48-.129.48-.444V33.29h-5.492V27.353h7.064V41.741a1.517,1.517,0,0,1-.5,1.332,2.239,2.239,0,0,1-1.257.259Zm.185-14.666H227.1V29.7h4.013Zm0,2.256H227.1V32h4.013Z" transform="translate(87.555)" fill="#ffdb00"/>
      <path id="Path_40" data-name="Path 40" d="M237.818,30.978a39.922,39.922,0,0,0-.407,5.475c0,.721.037,1.479.093,2.219.389-.795.795-1.5,1.072-1.941l1.332.813a15.247,15.247,0,0,0-1.942,4.42l-1.535.056a23.671,23.671,0,0,1-.592-5.566,42.5,42.5,0,0,1,.852-8.156l1.534.351s-.037.2-.129.61C238.021,29.665,237.929,30.256,237.818,30.978Zm3.439,6.954a4.353,4.353,0,0,1,.962-2.645l1.239.962a2.766,2.766,0,0,0-.629,1.683,1.955,1.955,0,0,0,.888,1.646,4.094,4.094,0,0,0,2.256.5,9.749,9.749,0,0,0,2.885-.462l.463,1.5a10.355,10.355,0,0,1-3.348.536,5.373,5.373,0,0,1-3.162-.795,3.527,3.527,0,0,1-1.553-2.922Zm4.4-6.695h-4.05V29.665h7.064L248.9,31.2a8.455,8.455,0,0,0-3.624,2.607l-1.2-1.036a15.71,15.71,0,0,1,1.59-1.535Z" transform="translate(94.563)" fill="#ffdb00"/>
      <path id="Path_41" data-name="Path 41" d="M260.7,40.077v3.366h-1.646V40.077h-7.471V38.616h7.472V37.191h-5.622v-6.75h1.923a14.431,14.431,0,0,0-1.424-2.83l1.5-.666a11.622,11.622,0,0,1,1.646,2.94l-1.479.555h6.159a25.633,25.633,0,0,0,2.312-3.754l1.646.776a25.8,25.8,0,0,1-2.053,2.978h2.793v6.75H260.7v1.424h7.6v1.461Zm-1.59-8.285h-4.088V33.1h4.088Zm0,2.607h-4.088v1.443h4.088Zm.166-3.958a14.554,14.554,0,0,0-1.387-3.107l1.517-.647a14.293,14.293,0,0,1,1.571,3.106Zm5.585,1.35h-4.2V33.1h4.2Zm0,2.607h-4.2v1.443h4.2Z" transform="translate(101.653)" fill="#ffdb00"/>
      <path id="Path_42" data-name="Path 42" d="M285.033,35.065a21.358,21.358,0,0,1-3.051-1.794v.851h-1.721V36.3h4.753v1.424h-4.753v3.236c0,.407.093.5.167.518a6.01,6.01,0,0,0,1.331.092,3.945,3.945,0,0,0,1.85-.222,3.248,3.248,0,0,0,.314-1.572v-.24a1.1,1.1,0,0,1,.056-.333l1.535.555a4.946,4.946,0,0,1-.573,2.737c-.407.425-1.517.628-3.273.628a6.446,6.446,0,0,1-2.22-.259,1.43,1.43,0,0,1-.776-1.479V37.728h-2.423c-.352,2.885-2.349,4.79-6.029,5.807l-.851-1.443c3.273-.813,4.956-2.256,5.271-4.364h-4.66V36.3h4.753V34.122h-1.479v-.555a25.076,25.076,0,0,1-3.366,1.9l-1.035-1.332a17.981,17.981,0,0,0,3.994-2.108,15.888,15.888,0,0,0-2.33-1.96l1.165-1.036c1.018.851,1.775,1.5,2.313,2.053a11.8,11.8,0,0,0,1.979-2.293h-4.143V27.39h6.491a14.182,14.182,0,0,0,1.572,2.164,14.872,14.872,0,0,0,2-2.145l1.313.943a21.023,21.023,0,0,1-2.33,2.164c.333.3.666.573.98.813a18.289,18.289,0,0,0,2.127-2.2l1.331.943a25.229,25.229,0,0,1-2.274,2.053,21.274,21.274,0,0,0,3.07,1.572Zm-10.671-2.33h6.861a17.2,17.2,0,0,1-3.625-3.606,14.458,14.458,0,0,1-3.236,3.607Zm4.31,1.387H276.3V36.3h2.367Z" transform="translate(108.769)" fill="#ffdb00"/>
      <path id="Path_43" data-name="Path 43" d="M288.446,39.577a5.49,5.49,0,0,1-.722-2.885,8.236,8.236,0,0,1,.592-3.052,8.012,8.012,0,0,1,7.453-4.919h.111c3.384.055,6.232,2.256,6.769,5.141a9.912,9.912,0,0,1,.13,1.442,7.5,7.5,0,0,1-3.625,6.38l-.851-1.332a5.879,5.879,0,0,0,2.9-5.049,6.5,6.5,0,0,0-.111-1.165c-.314-1.96-2.478-3.772-5.159-3.847.037.647.056,1.276.056,1.85a20,20,0,0,1-.407,4.309,8.338,8.338,0,0,1-1.424,3.329,3.427,3.427,0,0,1-2.737,1.442,3.682,3.682,0,0,1-.444-.037,3.431,3.431,0,0,1-2.533-1.609Zm.851-2.885a3.977,3.977,0,0,0,.48,2.053,1.8,1.8,0,0,0,1.406.888,1.049,1.049,0,0,0,.24.019,1.834,1.834,0,0,0,1.5-.832,6.714,6.714,0,0,0,1.128-2.719,18.857,18.857,0,0,0,.37-3.958c0-.537-.019-1.091-.056-1.7a6.4,6.4,0,0,0-4.587,3.791,6.638,6.638,0,0,0-.48,2.46Z" transform="translate(115.797)" fill="#ffdb00"/>
      <path id="Path_44" data-name="Path 44" d="M308.947,43.442h-1.628v-9.08c-.518.758-1.035,1.516-1.757,2.4l-.888-1.405a22.289,22.289,0,0,0,4.2-8.489l1.59.444a30.548,30.548,0,0,1-1.516,4.069Zm7.3-9.8V41.02h4.642v1.535H310.057V41.02h4.531V33.641h-5.031V32.125h5.031v-5.16h1.664v5.16h5.289v1.516Z" transform="translate(123.148)" fill="#ffdb00"/>
      <path id="Path_45" data-name="Path 45" d="M336.725,38.135v2.848h-1.553v-.8h-4v1.794a1.3,1.3,0,0,1-.462,1.165,2.391,2.391,0,0,1-1.314.277c-.665,0-1.387-.055-2.2-.129l-.277-1.646a9.223,9.223,0,0,0,2.163.277c.37,0,.5-.129.5-.388v-1.35H323.5V38.893h6.085v-.8h-7.6V36.8h7.6v-.74h-6.1V34.769h6.1v-.8h-5.179V30.516h5.179v-.8h-7.139V28.389h7.139V26.5h1.59v1.886h7.269V29.72h-7.269v.8h5.289v3.458h-5.289v.8h5.548v2h2.183v1.369Zm-7.138-6.38h-3.662v.962h3.662Zm5.362,0h-3.772v.962h3.772Zm.223,4.309h-4v.74h4Zm0,2.034h-4v.8h4Z" transform="translate(130.162)" fill="#ffdb00"/>
      <path id="Path_46" data-name="Path 46" d="M354.5,35.361a25.471,25.471,0,0,0-3.532.481c.019.259.037.536.037.795A17.734,17.734,0,0,1,350.8,39l-1.554-.24a15.471,15.471,0,0,0,.186-2.127,2.983,2.983,0,0,0-.019-.407,12.089,12.089,0,0,0-2.127.888,4.362,4.362,0,0,0-1.35,1.073,2.012,2.012,0,0,0-.426,1.239,1.4,1.4,0,0,0,.019.278c.056.48.277.739.813,1.035a5.479,5.479,0,0,0,2.2.462c.352.019.7.037,1.017.037a20.754,20.754,0,0,0,3.792-.388l.259,1.553a22.342,22.342,0,0,1-4.032.407h-.019c-.351,0-.7-.018-1.091-.037a7.228,7.228,0,0,1-2.848-.647,2.868,2.868,0,0,1-1.665-2.256c0-.148-.019-.3-.019-.444a3.528,3.528,0,0,1,.759-2.2,5.76,5.76,0,0,1,1.831-1.479,12.83,12.83,0,0,1,2.478-1.036,1.206,1.206,0,0,0-.629-.481,3.6,3.6,0,0,0-1.275-.222c-1.221.019-2.867.481-4.347,3.163a1.594,1.594,0,0,0-.129.24l-1.387-.74a4.953,4.953,0,0,1,.24-.444c.592-1.146,1.571-3.255,2.44-5.123l.056-.111c-.813-.019-1.608-.037-2.293-.074l.074-1.572c.869.037,1.886.074,2.94.074.629-1.369,1.072-2.367,1.072-2.367l1.442.647s-.314.7-.795,1.738c1.646,0,3.273-.056,4.531-.129l.11,1.572c-1.424.092-3.236.129-5.049.129H345.7c-.277.61-.592,1.276-.887,1.923a5.539,5.539,0,0,1,2.293-.5,5.284,5.284,0,0,1,1.831.314,2.846,2.846,0,0,1,1.646,1.554,29.923,29.923,0,0,1,3.791-.518Z" transform="translate(136.754)" fill="#ffdb00"/>
      <path id="Path_47" data-name="Path 47" d="M360.356,40.964a6.427,6.427,0,0,1-1.461-4.457,1.69,1.69,0,0,1,.019-.3l.277-8.1,1.572.056-.277,8.1a1.049,1.049,0,0,0-.019.24,4.928,4.928,0,0,0,1.054,3.4A3.711,3.711,0,0,0,364.091,41h.277a3.548,3.548,0,0,0,2.793-1.128,5.038,5.038,0,0,0,1.072-3.366l1.572.019a6.53,6.53,0,0,1-1.479,4.383,5.081,5.081,0,0,1-3.939,1.665h-.019a2.221,2.221,0,0,1-.351-.019,5.138,5.138,0,0,1-3.662-1.59Z" transform="translate(102.529)" fill="#ffdb00"/>
      <path id="Path_48" data-name="Path 48" d="M373.71,42.333l-1.517-.444c.925-3.125,1.813-6.806,2.46-9.709l.111-.5c-1.295,0-2.146-.037-2.164-.037l.056-1.554s1,.019,2.459.019c.389-1.794.629-2.959.629-2.959l1.535.314s-.2,1.036-.555,2.645c1.332-.019,2.829-.055,4.217-.148l.11,1.572c-1.571.092-3.236.129-4.679.148C375.707,34.695,374.728,38.837,373.71,42.333Zm12.649-2.127.37,1.535a16.584,16.584,0,0,1-3.162.314,14.674,14.674,0,0,1-2.7-.259,2.707,2.707,0,0,1-2.349-2.534,3.309,3.309,0,0,1,1.258-2.422l1.035,1.184a1.8,1.8,0,0,0-.721,1.239c.019.389.222.777,1.109,1a10.828,10.828,0,0,0,2.367.222,13.717,13.717,0,0,0,2.792-.277Zm-.5-5.862a10.543,10.543,0,0,0-3.366,1.942l-.887-1a6.712,6.712,0,0,1,1.59-1c-1.645.056-3.7.2-3.7.2l-.074-1.554c.019,0,3.7-.185,5.844-.185.277,0,.518.019.74.019-.037,1.2-.056,1.535-.056,1.535a.78.78,0,0,0-.093.037Z" transform="translate(128.084)" fill="#ffdb00"/>
      <path id="Path_49" data-name="Path 49" d="M389.4,33.123a19.753,19.753,0,0,1,.37-3.662l1.553.3a17.091,17.091,0,0,0-.352,3.366,9.338,9.338,0,0,0,2.313,6.6l1.867-1.553,1.018,1.2-2.94,2.459-.518-.462A10.725,10.725,0,0,1,389.4,33.123Zm12.631,4.938a30.049,30.049,0,0,0-2.57-6.732l1.387-.74a31.217,31.217,0,0,1,2.7,7.046Z" transform="translate(169.487)" fill="#ffdb00"/>
    </g>
    <text id="残りの約85_の人は画像検査で異常がない腰痛として診断される" data-name="残りの約85％の人は画像検査で異常がない腰痛として診断される" transform="translate(2086 1775)" font-size="19" font-family="NotoSansJP-Medium, Noto Sans JP" font-weight="500"><tspan x="0" y="0">残りの約85％の人は画像検査で異常がない腰痛として診断される</tspan></text>
  </g>
</svg>
