<svg xmlns="http://www.w3.org/2000/svg" viewBox="0 0 464 101"><title>フリーランスの仕事の合間に単発の仕事をしたい</title><rect width="464" height="101" style="fill:#ffdb00"/><path d="M34.42676,22.1499H51.29688l1.21484,1.2417c-.13477,4.61621-1.26856,8.50293-3.64356,11.52637-2.34863,3.023-5.85742,5.12842-10.47363,6.34326l-.64746-2.32178c4.292-1.16064,7.26074-2.99609,9.2041-5.50634a15.9947,15.9947,0,0,0,3.07715-8.85352H34.42676Z" style="stroke:#000;stroke-linecap:round;stroke-linejoin:round;stroke-width:0.25px"/><path d="M61.01855,20.15283V32.65039H58.58887V20.15283Zm1.72754,22.56592L62.044,40.37012a11.95845,11.95845,0,0,0,6.34277-3.94092,9.314,9.314,0,0,0,1.94433-5.96533V20.01758h2.42872V30.46387a11.96,11.96,0,0,1-2.45606,7.477A14.90149,14.90149,0,0,1,62.74609,42.71875Z" style="stroke:#000;stroke-linecap:round;stroke-linejoin:round;stroke-width:0.25px"/><path d="M78.68359,28.79053H100.332v2.4292H78.68359Z" style="stroke:#000;stroke-linecap:round;stroke-linejoin:round;stroke-width:0.25px"/><path d="M122.99316,26.81982l1.1875,1.37647a15.823,15.823,0,0,1-4.2373,9.20459,17.42684,17.42684,0,0,1-9.043,4.66992l-.51269-2.37549a15.042,15.042,0,0,0,7.82812-3.99463,12.94932,12.94932,0,0,0,3.31934-6.45166H104.42188v-2.4292ZM121.832,21.07031V23.5H106.25781V21.07031Z" style="stroke:#000;stroke-linecap:round;stroke-linejoin:round;stroke-width:0.25px"/><path d="M130.65137,25.06543c-1.53907-.54-2.78028-.97168-2.80762-.97168l.7832-2.29443c.02637,0,5.04688,1.70068,7.3418,2.61816l-.89063,2.26758C133.99805,26.25293,132.16309,25.605,130.65137,25.06543Zm13.73925-.189,2.42872.13477A16.01531,16.01531,0,0,1,142.582,35.02588a15.70717,15.70717,0,0,1-11.74219,4.72363h-.05371c-.75586,0-1.53906-.0542-2.34863-.13525l.24316-2.40235c.72852.0542,1.43067.1084,2.10547.1084a13.36817,13.36817,0,0,0,10.041-3.96826A13.55022,13.55022,0,0,0,144.39062,24.87646Z" style="stroke:#000;stroke-linecap:round;stroke-linejoin:round;stroke-width:0.25px"/><path d="M150.81836,40.8833l-.72852-2.32178c4.58789-1.48437,7.80078-3.53564,9.98731-6.15429a16.87618,16.87618,0,0,0,3.6709-8.28662H151.68164v-2.4292h13.46973l1.21484,1.37646a21.22948,21.22948,0,0,1-3.13086,9.17774c1.21387,1.1333,5.34375,4.93945,6.99024,6.80224L168.418,40.667c-.86426-.99853-2.7002-2.75293-4.26563-4.23779-.97168-.91748-1.8623-1.7544-2.40234-2.24024A23.55648,23.55648,0,0,1,150.81836,40.8833Z" style="stroke:#000;stroke-linecap:round;stroke-linejoin:round;stroke-width:0.25px"/><path d="M173.85254,36.99609a8.01043,8.01043,0,0,1-1.05274-4.21093,11.989,11.989,0,0,1,.86426-4.45362A11.6895,11.6895,0,0,1,184.542,21.15137h.16211c4.93945.08105,9.0957,3.293,9.87891,7.5039a14.4543,14.4543,0,0,1,.18847,2.10547,10.93724,10.93724,0,0,1-5.29,9.3125l-1.24219-1.94336a8.57938,8.57938,0,0,0,4.23828-7.36914,9.48255,9.48255,0,0,0-.16211-1.70068c-.459-2.86084-3.61719-5.50635-7.53125-5.61426.05469.94482.08105,1.86231.08105,2.69922a29.149,29.149,0,0,1-.59375,6.28955,12.14957,12.14957,0,0,1-2.07812,4.8584,4.99916,4.99916,0,0,1-3.99512,2.10547,5.26307,5.26307,0,0,1-.64746-.05371A5.00888,5.00888,0,0,1,173.85254,36.99609Zm1.24121-4.21093a5.78624,5.78624,0,0,0,.70215,2.99609,2.62652,2.62652,0,0,0,2.05176,1.2959,1.54427,1.54427,0,0,0,.35058.02685,2.67444,2.67444,0,0,0,2.18653-1.21435,9.78839,9.78839,0,0,0,1.64648-3.96826,27.449,27.449,0,0,0,.54-5.77637c0-.78272-.02734-1.59229-.08106-2.4834a9.34313,9.34313,0,0,0-6.69433,5.53369A9.65794,9.65794,0,0,0,175.09375,32.78516Z" style="stroke:#000;stroke-linecap:round;stroke-linejoin:round;stroke-width:0.25px"/><path d="M203.69141,42.6377h-2.375V29.38428c-.75586,1.10644-1.51172,2.21338-2.56446,3.50879L197.457,30.8418A32.536,32.536,0,0,0,203.584,18.45215l2.32129.648a44.59366,44.59366,0,0,1-2.21386,5.93847Zm10.66308-14.30616v10.77h6.77442V41.3418H205.31152V39.10156h6.61328v-10.77H204.583V26.11816h7.34179V18.58691h2.42969v7.53125h7.71973v2.21338Z" style="stroke:#000;stroke-linecap:round;stroke-linejoin:round;stroke-width:0.25px"/><path d="M244.13379,34.89062v4.15723h-2.26758V37.88672h-5.83008v2.61865a1.89775,1.89775,0,0,1-.6748,1.7002,3.48953,3.48953,0,0,1-1.917.40527c-.97168,0-2.02442-.08105-3.21192-.189l-.4043-2.40235a13.49785,13.49785,0,0,0,3.15821.40479c.53906,0,.72851-.189.72851-.5669v-1.9707H224.834V35.99756h8.88086V34.83691H222.62109V32.94727h11.09375V31.86768h-8.9082V29.978h8.9082V28.81738h-7.55859V23.76953h7.55859V22.60889H223.2959V20.66553h10.41894V17.91211h2.32129v2.75342h10.6084v1.94336h-10.6084v1.16064h7.71973v5.04785h-7.71973V29.978h8.09766v2.915h3.18555v1.99755Zm-10.41895-9.3125h-5.34472v1.40381h5.34472Zm7.82813,0h-5.50684v1.40381H241.543Zm.32324,6.28956h-5.83008v1.07959h5.83008Zm0,2.96923h-5.83008v1.16065h5.83008Z" style="stroke:#000;stroke-linecap:round;stroke-linejoin:round;stroke-width:0.25px"/><path d="M251.083,36.99609a8.01043,8.01043,0,0,1-1.05274-4.21093,11.989,11.989,0,0,1,.86426-4.45362,11.6895,11.6895,0,0,1,10.87793-7.18017h.16211c4.93945.08105,9.0957,3.293,9.87891,7.5039a14.4543,14.4543,0,0,1,.18847,2.10547,10.93722,10.93722,0,0,1-5.29,9.3125l-1.24218-1.94336a8.57942,8.57942,0,0,0,4.23828-7.36914,9.48255,9.48255,0,0,0-.16211-1.70068c-.459-2.86084-3.61719-5.50635-7.53125-5.61426.05469.94482.08105,1.86231.08105,2.69922a29.149,29.149,0,0,1-.59375,6.28955,12.14957,12.14957,0,0,1-2.07812,4.8584,4.99916,4.99916,0,0,1-3.99512,2.10547,5.26307,5.26307,0,0,1-.64746-.05371A5.00888,5.00888,0,0,1,251.083,36.99609Zm1.24121-4.21093a5.78624,5.78624,0,0,0,.70215,2.99609,2.62652,2.62652,0,0,0,2.05175,1.2959,1.5444,1.5444,0,0,0,.35059.02685,2.67441,2.67441,0,0,0,2.18652-1.21435,9.78825,9.78825,0,0,0,1.64649-3.96826,27.449,27.449,0,0,0,.54-5.77637c0-.78272-.02735-1.59229-.08106-2.4834a9.34313,9.34313,0,0,0-6.69433,5.53369A9.65794,9.65794,0,0,0,252.32422,32.78516Z" style="stroke:#000;stroke-linecap:round;stroke-linejoin:round;stroke-width:0.25px"/><path d="M298.37109,29.897a38.54406,38.54406,0,0,1-4.80468-2.80713v1.91651H280.90625v-1.2417a34.60281,34.60281,0,0,1-4.72363,2.67236l-1.53809-1.9165a21.06779,21.06779,0,0,0,11.17481-9.90625h2.48339c2.56446,3.80566,6.34278,6.8291,11.55274,9.17724ZM293.10742,42.6377V41.15283H281.39258V42.6377h-2.42969V31.5166h16.54688V42.6377Zm0-9.04249H281.39258v5.45264h11.71484Zm.16211-6.72119a26.14474,26.14474,0,0,1-6.12793-5.91162A21.13267,21.13267,0,0,1,282.04,26.874Z" style="stroke:#000;stroke-linecap:round;stroke-linejoin:round;stroke-width:0.25px"/><path d="M304.71582,27.81885V42.6377H302.4209V19.15381h10.123v8.665Zm5.668-6.74854h-5.668V22.582h5.668Zm0,3.29346h-5.668V25.9292h5.668Zm-.10742,14.87256V40.856h-2.18653V29.49219h10.93164v9.74414Zm6.55859-7.80078h-6.55859v1.9165H316.835Zm0,3.80615h-6.55859V37.293H316.835Zm5.26367,7.23389a25.879,25.879,0,0,1-3.34668-.21582l-.32422-2.37549a22.08682,22.08682,0,0,0,3.23926.27c.48633,0,.70215-.189.70215-.648V27.81885h-8.0166v-8.665h10.31055V40.1543a2.211,2.211,0,0,1-.72852,1.94336A3.26873,3.26873,0,0,1,322.09863,42.47559Zm.27051-21.40528h-5.85742V22.582h5.85742Zm0,3.29346h-5.85742V25.9292h5.85742Z" style="stroke:#000;stroke-linecap:round;stroke-linejoin:round;stroke-width:0.25px"/><path d="M332.05762,24.44434a58.43131,58.43131,0,0,0-.59375,7.99023c0,1.05273.05371,2.15918.13476,3.23877.56739-1.16064,1.16114-2.186,1.56641-2.834l1.94336,1.1875a22.25855,22.25855,0,0,0-2.835,6.45117l-2.24024.08105a34.5291,34.5291,0,0,1-.86328-8.12451,62.1185,62.1185,0,0,1,1.24121-11.90381l2.24024.5127s-.05371.29687-.18848.89062C332.35449,22.52783,332.21973,23.3916,332.05762,24.44434Zm5.0205,10.14941a6.35084,6.35084,0,0,1,1.4043-3.85986l1.8086,1.40381a4.03712,4.03712,0,0,0-.918,2.456,2.85423,2.85423,0,0,0,1.2959,2.40234,5.97845,5.97845,0,0,0,3.293.729,14.252,14.252,0,0,0,4.21094-.67481l.67481,2.186a15.12979,15.12979,0,0,1-4.88575.7832,7.84683,7.84683,0,0,1-4.61621-1.16064A5.151,5.151,0,0,1,337.07812,34.59375Zm6.42481-9.77148H337.5918V22.52783h10.31054l.32422,2.24072a12.344,12.344,0,0,0-5.291,3.80567L341.18164,27.063A22.8601,22.8601,0,0,1,343.50293,24.82227Z" style="stroke:#000;stroke-linecap:round;stroke-linejoin:round;stroke-width:0.25px"/><path d="M365.35547,37.7251v4.9126h-2.40235V37.7251H352.04785V35.59277h10.90527V33.51416h-8.20605V23.66162h2.80664a21.0501,21.0501,0,0,0-2.07812-4.12988l2.18652-.97168a16.99536,16.99536,0,0,1,2.40234,4.292l-2.15918.80957h8.98828a37.25618,37.25618,0,0,0,3.374-5.47949l2.40234,1.13379a37.81291,37.81291,0,0,1-2.99609,4.3457H373.75v9.85254h-8.39453v2.07861h11.09375V37.7251ZM363.0332,25.63232h-5.96484v1.91651h5.96484Zm0,3.80567h-5.96484v2.10547h5.96484Zm.24317-5.77637A21.148,21.148,0,0,0,361.252,19.127l2.21387-.94482a20.87051,20.87051,0,0,1,2.29395,4.53467Zm8.15234,1.9707h-6.12793v1.91651h6.12793Zm0,3.80567h-6.12793v2.10547h6.12793Z" style="stroke:#000;stroke-linecap:round;stroke-linejoin:round;stroke-width:0.25px"/><path d="M400.7793,30.41016a31.19085,31.19085,0,0,1-4.4541-2.61866v1.2417h-2.51075v3.18506h6.9375v2.07862h-6.9375v4.72363c0,.59375.13575.729.24317.75586a8.73567,8.73567,0,0,0,1.94336.13525c1.70117,0,2.4834-.13525,2.69922-.32422a4.73889,4.73889,0,0,0,.459-2.29443v-.35059a1.61474,1.61474,0,0,1,.08105-.48584l2.24024.80957c-.08106,2.15918-.35059,3.45508-.83692,3.99512-.59375.62061-2.21289.91748-4.77734.91748a9.40266,9.40266,0,0,1-3.23926-.37793,2.08723,2.08723,0,0,1-1.13379-2.15918V34.29688H387.957c-.51269,4.21093-3.42773,6.99121-8.79883,8.47558L377.916,40.667c4.77734-1.1875,7.23437-3.293,7.69336-6.37011h-6.80274V32.21826h6.9375V29.0332H383.585v-.80957a36.69377,36.69377,0,0,1-4.91308,2.78028l-1.51172-1.94385a26.2561,26.2561,0,0,0,5.83105-3.07715,23.275,23.275,0,0,0-3.40137-2.86084l1.7002-1.51172c1.48437,1.2417,2.5918,2.18653,3.374,2.9961a17.16435,17.16435,0,0,0,2.88867-3.34717h-6.04687V19.208h9.47461a20.80318,20.80318,0,0,0,2.29492,3.1582,21.63213,21.63213,0,0,0,2.915-3.13135l1.916,1.37647a30.75467,30.75467,0,0,1-3.4004,3.1582c.48536.43213.97168.83692,1.43067,1.188a26.65693,26.65693,0,0,0,3.10351-3.2124l1.94336,1.377a36.75817,36.75817,0,0,1-3.32031,2.99609,31.08337,31.08337,0,0,0,4.48145,2.29444Zm-15.5752-3.40137h10.01465a25.06882,25.06882,0,0,1-5.291-5.26367A21.12144,21.12144,0,0,1,385.2041,27.00879Zm6.28906,2.02441h-3.45507v3.18506h3.45507Z" style="stroke:#000;stroke-linecap:round;stroke-linejoin:round;stroke-width:0.25px"/><path d="M405.67188,36.99609a8.01043,8.01043,0,0,1-1.05274-4.21093,11.989,11.989,0,0,1,.86426-4.45362,11.68949,11.68949,0,0,1,10.87793-7.18017h.16211c4.93945.08105,9.0957,3.293,9.8789,7.5039a14.45435,14.45435,0,0,1,.18848,2.10547,10.93725,10.93725,0,0,1-5.29,9.3125l-1.24219-1.94336a8.57941,8.57941,0,0,0,4.23829-7.36914,9.48347,9.48347,0,0,0-.16211-1.70068c-.459-2.86084-3.61719-5.50635-7.53125-5.61426.05468.94482.08105,1.86231.08105,2.69922a29.149,29.149,0,0,1-.59375,6.28955,12.14957,12.14957,0,0,1-2.07812,4.8584,4.99916,4.99916,0,0,1-3.99512,2.10547,5.26307,5.26307,0,0,1-.64746-.05371A5.00884,5.00884,0,0,1,405.67188,36.99609Zm1.24121-4.21093a5.78634,5.78634,0,0,0,.70214,2.99609,2.62655,2.62655,0,0,0,2.05176,1.2959,1.54436,1.54436,0,0,0,.35059.02685,2.67441,2.67441,0,0,0,2.18652-1.21435,9.78825,9.78825,0,0,0,1.64649-3.96826,27.44986,27.44986,0,0,0,.54-5.77637c0-.78272-.02734-1.59229-.08105-2.4834a9.34316,9.34316,0,0,0-6.69434,5.53369A9.65812,9.65812,0,0,0,406.91309,32.78516Z" style="stroke:#000;stroke-linecap:round;stroke-linejoin:round;stroke-width:0.25px"/><path d="M37.09863,80.6377h-2.375V67.38428c-.75586,1.10644-1.51172,2.21338-2.56445,3.50879l-1.2959-2.05127a32.52329,32.52329,0,0,0,6.12793-12.38965l2.32129.64795a44.59221,44.59221,0,0,1-2.21387,5.93847ZM47.76172,66.33154v10.77h6.77441V79.3418H38.71875V77.10156H45.332v-10.77h-7.3418V64.11816H45.332V56.58691h2.42969v7.53125h7.71973v2.21338Z" style="stroke:#000;stroke-linecap:round;stroke-linejoin:round;stroke-width:0.25px"/><path d="M77.541,72.89062v4.15723H75.27344V75.88672H69.44336v2.61865a1.89773,1.89773,0,0,1-.67481,1.7002,3.4895,3.4895,0,0,1-1.917.40527c-.97168,0-2.02441-.081-3.21191-.189l-.4043-2.40235a13.49778,13.49778,0,0,0,3.1582.40479c.53907,0,.72852-.189.72852-.5669v-1.9707H58.24121V73.99756h8.88086V72.83691H56.02832V70.94727H67.12207V69.86768h-8.9082V67.978h8.9082V66.81738H59.56348V61.76953h7.55859V60.60889H56.70312V58.66553H67.12207V55.91211h2.32129v2.75342h10.6084v1.94336H69.44336v1.16064h7.71973v5.04785H69.44336V67.978H77.541v2.915h3.18554v1.99755Zm-10.419-9.3125H61.77734v1.40381h5.34473Zm7.82813,0H69.44336v1.40381H74.9502Zm.32324,6.28956H69.44336v1.07959h5.83008Zm0,2.96923H69.44336v1.16065h5.83008Z" style="stroke:#000;stroke-linecap:round;stroke-linejoin:round;stroke-width:0.25px"/><path d="M103.39648,68.8418a37.29685,37.29685,0,0,0-5.15625.70166c.02735.37793.05469.78271.05469,1.16064a25.94384,25.94384,0,0,1-.29687,3.45508l-2.26758-.35059A22.61939,22.61939,0,0,0,96,70.7041a4.47451,4.47451,0,0,0-.02637-.59375,17.61776,17.61776,0,0,0-3.10449,1.2959,6.36552,6.36552,0,0,0-1.9707,1.56543,2.94019,2.94019,0,0,0-.6211,1.80859,2.0158,2.0158,0,0,0,.02735.40479c.08105.70166.40527,1.07959,1.1875,1.51172a8.01552,8.01552,0,0,0,3.21289.6748c.51269.02686,1.02539.05371,1.48437.05371a30.27128,30.27128,0,0,0,5.53321-.5664l.37793,2.26709a32.59873,32.59873,0,0,1-5.88477.59375h-.02637c-.51269,0-1.02636-.02686-1.59277-.05371a10.55343,10.55343,0,0,1-4.15723-.94483,4.18132,4.18132,0,0,1-2.42871-3.293c0-.21631-.02734-.43213-.02734-.64795a5.15055,5.15055,0,0,1,1.10644-3.2124,8.42212,8.42212,0,0,1,2.67286-2.15918A18.693,18.693,0,0,1,95.37988,67.897a1.76388,1.76388,0,0,0-.918-.70166,5.25379,5.25379,0,0,0-1.8623-.32422c-1.78223.02735-4.18457.70215-6.34375,4.61621a2.19557,2.19557,0,0,0-.18848.35059L84.042,70.7583c.1084-.21582.2168-.43213.35156-.648.86329-1.67334,2.29395-4.75049,3.5625-7.477.02735-.05371.05469-.10791.08106-.16162-1.1875-.02734-2.34766-.0542-3.34668-.10791l.10742-2.29443c1.26953.05371,2.75391.10791,4.292.10791.918-1.99756,1.56543-3.45508,1.56543-3.45508l2.10547.94482s-.458,1.02539-1.16015,2.53711c2.40234,0,4.77734-.081,6.61328-.189l.16211,2.29443c-2.0791.13477-4.72364.189-7.36914.189h-.459c-.40527.89062-.86426,1.8623-1.2959,2.80712a8.08946,8.08946,0,0,1,3.34766-.72851,7.69345,7.69345,0,0,1,2.67187.45849,4.152,4.152,0,0,1,2.40235,2.26758,43.71724,43.71724,0,0,1,5.5332-.75586Z" style="stroke:#000;stroke-linecap:round;stroke-linejoin:round;stroke-width:0.25px"/><path d="M111.80273,77.02051a9.38011,9.38011,0,0,1-2.13281-6.50537,2.43754,2.43754,0,0,1,.02735-.43164l.40527-11.82276,2.29394.08106-.40527,11.82275a1.57181,1.57181,0,0,0-.02637.35059,7.19381,7.19381,0,0,0,1.53809,4.96679,5.41589,5.41589,0,0,0,3.75195,1.59278h.40528a5.17962,5.17962,0,0,0,4.07617-1.64649,7.35961,7.35961,0,0,0,1.56543-4.91308l2.29394.02734a9.53205,9.53205,0,0,1-2.15918,6.397,7.4154,7.4154,0,0,1-5.749,2.42969h-.02734a3.22363,3.22363,0,0,1-.5127-.02734A7.50065,7.50065,0,0,1,111.80273,77.02051Z" style="stroke:#000;stroke-linecap:round;stroke-linejoin:round;stroke-width:0.25px"/><path d="M131.17871,79.01807l-2.21387-.64795c1.34961-4.56153,2.64551-9.93311,3.58985-14.1709q.082-.36476.16211-.729c-1.88868,0-3.13086-.05419-3.15821-.05419l.08106-2.26709s1.458.02685,3.59082.02685c.56641-2.61816.917-4.31885.917-4.31885l2.24024.459s-.29688,1.51172-.80958,3.85986c1.94336-.02685,4.12989-.08105,6.1543-.21582l.16211,2.29443c-2.29394.13477-4.72363.189-6.8291.21582C134.09375,67.87012,132.66309,73.9165,131.17871,79.01807Zm18.46289-3.104.54,2.24024a24.20181,24.20181,0,0,1-4.61621.459,21.44481,21.44481,0,0,1-3.94043-.37793,3.95092,3.95092,0,0,1-3.42871-3.69824,4.83274,4.83274,0,0,1,1.83594-3.53565L141.544,72.729a2.62186,2.62186,0,0,0-1.05274,1.80811c.02637.56689.32422,1.13379,1.61914,1.458a15.83079,15.83079,0,0,0,3.45508.32373A20.02175,20.02175,0,0,0,149.6416,75.91406Zm-.72851-8.55664A15.375,15.375,0,0,0,144,70.19141l-1.2959-1.45752a9.8387,9.8387,0,0,1,2.32129-1.45752c-2.40234.08105-5.39844.29687-5.39844.29687l-.10742-2.26758c.02637,0,5.39844-.27,8.5293-.27.40527,0,.75586.02735,1.08008.02735-.05371,1.75439-.08106,2.24023-.08106,2.24023A1.06673,1.06673,0,0,0,148.91309,67.35742Z" style="stroke:#000;stroke-linecap:round;stroke-linejoin:round;stroke-width:0.25px"/><path d="M153.95605,65.57568a28.88568,28.88568,0,0,1,.54-5.34472l2.26758.43213a24.87937,24.87937,0,0,0-.51367,4.91259c.02734,4.07569,1.16113,7.28809,3.374,9.63623l2.72657-2.26709,1.48437,1.7544-4.291,3.58984-.75586-.6748C155.5752,74.72607,153.95605,70.51514,153.95605,65.57568Zm18.43555,7.207a43.81706,43.81706,0,0,0-3.752-9.82519l2.02441-1.08008a45.53081,45.53081,0,0,1,3.94141,10.28467Z" style="stroke:#000;stroke-linecap:round;stroke-linejoin:round;stroke-width:0.25px"/></svg>
