<svg xmlns="http://www.w3.org/2000/svg" width="591" height="73" viewBox="0 0 591 73">
  <g id="Group_2" data-name="Group 2" transform="translate(-1046 -929)">
    <g id="copy03" transform="translate(1046 929)">
      <rect id="Rectangle_1" data-name="Rectangle 1" width="591" height="73" fill="#ffdb00"/>
      <path id="Path_2" data-name="Path 2" d="M35.715,40.317v3.125h-1.48V40.317H30.776V38.93h3.459V37.747H31.479V31.2h2.756V30.127H31.109V28.74h3.126V26.5h1.479v2.24H38.97v1.387H35.715V31.2h2.848v6.547H35.715V38.93h3.5v1.387Zm-1.424-7.878H32.848v1.387h1.443Zm0,2.607H32.848v1.442h1.443Zm2.885-2.607h-1.5v1.387h1.5Zm0,2.607h-1.5v1.442h1.5Zm9.283,8.322c-.147-.425-.406-1.239-.592-1.683-2.09.462-4.346.906-6.9,1.258l-.519-1.665s.481-.074,1.092-.111c.259-.037.462-.037.629-.056a40.459,40.459,0,0,0,1.424-6.2H38.97v-1.5h8.654v1.5H43.278a47.7,47.7,0,0,1-1.517,6.01q2.054-.25,3.606-.555a32.812,32.812,0,0,0-1.479-3.051l1.424-.537a36.754,36.754,0,0,1,2.626,5.7Zm-6.75-13.981V27.908h7.027v1.479Z" transform="translate(0 3.084)" fill="#ffdb00"/>
      <path id="Path_3" data-name="Path 3" d="M56.636,40.558V41.5H55.285V34.38H60.52v6.065a13.969,13.969,0,0,0,1.405-1.757,28.127,28.127,0,0,1-.555-5.2H54.4v9.949H52.992v-3.81c-1.165.388-2.423.777-3.921,1.184L48.628,39.2c.573-.111.962-.167,1.294-.241V28.814h-.888v-1.4h6.4v1.054h1.72V26.484h1.461v1.979h2.4v1.331h-.74a22.918,22.918,0,0,1-.646,2.349h1.7v-.037c0-.388-.019-1.017-.019-1.868V26.595h1.442v5.437h3.329v1.35H62.794c.019,1.369.093,2.479.185,3.329a18.072,18.072,0,0,0,1-2.719l1.331.647a27.882,27.882,0,0,1-1.9,4.253,7.512,7.512,0,0,0,.962,2.016c.147.2.2.333.277.333.166,0,.166-.869.333-2.83l1.275.888c-.185,2.441-.592,3.9-1.387,3.9-.389,0-.832-.352-1.35-.925a6.078,6.078,0,0,1-1.073-1.886,16.758,16.758,0,0,1-3.311,3.255l-1-1.11a15.843,15.843,0,0,0,2.256-1.979ZM52.992,28.814h-1.72v2.2h1.72Zm0,3.551h-1.72v2.2h1.72Zm0,3.551h-1.72v2.737c.389-.111.962-.259,1.72-.462Zm1.775-6.122v-.98H54.4v3.329h1.57a21.717,21.717,0,0,0-.518-2.349Zm4.383,5.844H56.636V36.8H59.15Zm0,2.386H56.636V39.3H59.15Zm-2.312-8.23a22.837,22.837,0,0,1,.5,2.349H58.3c.2-.666.389-1.443.573-2.349Zm7.638,1.739A17.378,17.378,0,0,0,63,28.167l1.276-.629a18.606,18.606,0,0,1,1.5,3.2Z" transform="translate(0 3.095)" fill="#ffdb00"/>
      <path id="Path_4" data-name="Path 4" d="M67.5,41.981a28.127,28.127,0,0,0,3.329-5.77l1.2,1.258A37.715,37.715,0,0,1,68.811,43.4Zm3.181-6.658a14.2,14.2,0,0,0-2.922-2.645l1.072-1.294a17.966,17.966,0,0,1,3.033,2.645Zm.592-4.272a20.171,20.171,0,0,0-2.866-2.682l1.091-1.2a17.573,17.573,0,0,1,2.9,2.552Zm7.656,2.312V35.99H82.8v7.453H81.21V42.425H75.18v1.017H73.589V35.99h3.755V33.363h-5.2V31.921h5.2V29.572c-1.036.148-2.386.314-4.18.518l-.74-1.424a45.257,45.257,0,0,0,9.34-1.757L83.132,28.3c-1.4.407-2.755.721-4.2,1v2.626h5.216v1.442Zm2.275,4.05H75.18V41h6.029Z" transform="translate(41.246 3.106)" fill="#ffdb00"/>
      <path id="Path_5" data-name="Path 5" d="M85.186,41.3c1.128-.074,2.09-.167,3.033-.259l1.387-.147v-1.15H86.073V38.449H89.6V37.6H86.351V31.958h3.255v-.8H85.481v-1.29h4.124V28.98c-1.018.111-2.108.2-3.348.259L85.8,27.945a43.668,43.668,0,0,0,7.712-1l1.017,1.294c-1.276.259-2.367.444-3.439.573v1.054H94.9v.925h2.183V26.8h1.5v3.847h3.237c0,5.807-.167,9.45-.5,11a1.748,1.748,0,0,1-1.923,1.5,17,17,0,0,1-2-.166l-.259-1.738a7.867,7.867,0,0,0,2.034.314c.352,0,.556-.185.666-.647a49.844,49.844,0,0,0,.463-8.156v-.647H98.538a29.313,29.313,0,0,1-.519,6.066,9.811,9.811,0,0,1-3.181,5.345l-1.165-1.11a8.4,8.4,0,0,0,.925-.888c-2,.407-4.919.8-8.97,1.221Zm4.457-8.119H87.774v.961h1.868Zm0,2.164H87.774v1.036h1.868Zm3.365-2.164h-1.96v.961h1.96Zm0,2.164h-1.96v1.036h1.96Zm1.665-4.18H91.085v.8h3.347V37.6H91.085v.851h3.569v1.294H91.085v1c1.294-.147,2.515-.333,3.828-.555v.943A9.2,9.2,0,0,0,96.6,37.487a24.962,24.962,0,0,0,.426-5.215H94.673Z" transform="translate(52.046 3.104)" fill="#ffdb00"/>
      <path id="Path_6" data-name="Path 6" d="M104.63,39.577a5.49,5.49,0,0,1-.722-2.885,8.236,8.236,0,0,1,.592-3.052,8.012,8.012,0,0,1,7.453-4.919h.111c3.384.055,6.232,2.256,6.769,5.141a9.913,9.913,0,0,1,.13,1.442,7.5,7.5,0,0,1-3.625,6.38l-.851-1.332a5.879,5.879,0,0,0,2.9-5.049,6.5,6.5,0,0,0-.111-1.165c-.314-1.96-2.478-3.772-5.159-3.847.037.647.056,1.276.056,1.85a20,20,0,0,1-.407,4.309,8.338,8.338,0,0,1-1.424,3.329,3.427,3.427,0,0,1-2.737,1.442,3.681,3.681,0,0,1-.444-.037,3.431,3.431,0,0,1-2.533-1.609Zm.851-2.885a3.976,3.976,0,0,0,.48,2.053,1.8,1.8,0,0,0,1.406.888,1.049,1.049,0,0,0,.24.019,1.834,1.834,0,0,0,1.5-.832,6.713,6.713,0,0,0,1.128-2.719,18.858,18.858,0,0,0,.37-3.958c0-.537-.019-1.091-.056-1.7a6.4,6.4,0,0,0-4.587,3.791,6.638,6.638,0,0,0-.481,2.46Z" transform="translate(63.205 3.098)" fill="#ffdb00"/>
      <path id="Path_7" data-name="Path 7" d="M137.087,34.713A26.453,26.453,0,0,1,133.8,32.79V34.1h-8.674v-.851a23.714,23.714,0,0,1-3.236,1.831l-1.054-1.313a14.435,14.435,0,0,0,7.656-6.787h1.7a18.143,18.143,0,0,0,7.915,6.288Zm-3.606,8.729V42.425h-8.027v1.017H123.79V35.823h11.337v7.619Zm0-6.2h-8.027v3.736h8.026Zm.111-4.6a17.888,17.888,0,0,1-4.2-4.05,14.491,14.491,0,0,1-3.5,4.05Z" transform="translate(73.959 3.11)" fill="#ffdb00"/>
      <path id="Path_8" data-name="Path 8" d="M141.491,33.29V43.442H139.92V27.353h6.935V33.29Zm3.884-4.624h-3.884V29.7h3.884Zm0,2.256h-3.884V32h3.884Zm-.074,10.19v1.109h-1.5V34.436h7.49v6.676Zm4.494-5.345H145.3V37.08h4.494Zm0,2.607H145.3V39.78h4.494Zm3.606,4.957a17.725,17.725,0,0,1-2.293-.148l-.223-1.627a15.176,15.176,0,0,0,2.22.185c.333,0,.48-.129.48-.444V33.29h-5.492V27.353h7.064V41.741a1.517,1.517,0,0,1-.5,1.332,2.239,2.239,0,0,1-1.258.259Zm.185-14.666h-4.013V29.7h4.013Zm0,2.256h-4.013V32h4.013Z" transform="translate(85.158 3.13)" fill="#ffdb00"/>
      <path id="Path_9" data-name="Path 9" d="M160.289,30.978a39.92,39.92,0,0,0-.407,5.475c0,.721.037,1.479.093,2.219a22.093,22.093,0,0,1,1.072-1.941l1.332.813a15.245,15.245,0,0,0-1.942,4.42l-1.535.056a23.671,23.671,0,0,1-.592-5.566,42.5,42.5,0,0,1,.852-8.156l1.534.351s-.037.2-.129.61C160.492,29.665,160.4,30.256,160.289,30.978Zm3.439,6.954a4.353,4.353,0,0,1,.962-2.645l1.239.962a2.766,2.766,0,0,0-.629,1.683,1.955,1.955,0,0,0,.888,1.646,4.094,4.094,0,0,0,2.256.5,9.749,9.749,0,0,0,2.885-.462l.463,1.5a10.355,10.355,0,0,1-3.348.536,5.373,5.373,0,0,1-3.162-.795,3.527,3.527,0,0,1-1.553-2.922Zm4.4-6.695h-4.05V29.665h7.064l.222,1.535a8.455,8.455,0,0,0-3.624,2.607l-1.2-1.036a15.713,15.713,0,0,1,1.59-1.535Z" transform="translate(95.876 3.095)" fill="#ffdb00"/>
      <path id="Path_10" data-name="Path 10" d="M187.761,34.066V36.9h2.071v1.42H174.224V36.9h2.5V34.066h-3.052V32.642h3.052v-1.9a10.7,10.7,0,0,1-1.388,1.517l-1.109-1.036a13.107,13.107,0,0,0,3.292-4.716l1.5.518a16.512,16.512,0,0,1-.795,1.461h11.17v1.406h-1.628v2.755h2.626v1.424Zm-13.722,8.415a12.232,12.232,0,0,0,2.4-3.865l1.479.61a14.423,14.423,0,0,1-2.5,4.364Zm5.881-12.594H178.2v2.755h1.72Zm0,4.18H178.2V36.9h1.72Zm-.148,9.376a24.993,24.993,0,0,0-.739-4.161l1.517-.314a23.73,23.73,0,0,1,.943,4.106Zm3.273-13.556h-1.72v2.755h1.72Zm0,4.18h-1.72V36.9h1.72Zm.8,9.1a18.826,18.826,0,0,0-1.5-4l1.553-.5a23.932,23.932,0,0,1,1.609,3.884Zm2.44-13.278h-1.83v2.755h1.83Zm0,4.18h-1.83V36.9h1.83Zm2.534,9.173A21.334,21.334,0,0,0,185.9,39.1l1.368-.758a24.419,24.419,0,0,1,3.07,3.883Z" transform="translate(106.134 3.093)" fill="#ffdb00"/>
      <path id="Path_11" data-name="Path 11" d="M191.536,39.281c1.054-.259,1.85-.444,2.516-.628V34.362H192.11V32.938h1.942V29.424h-2.146V27.982H197.9v1.442h-2.331v3.514h1.961v1.424h-1.961v3.847c.666-.2,1.443-.462,2.46-.8l.111,1.369a50.937,50.937,0,0,1-6.011,2.016Zm5.511,3.421V41.26h5.179V39.281h-4v-1.4h4V36.045h-3.662V27.427h8.988v8.618h-3.791v1.831h4.18v1.4h-4.18V41.26h4.919V42.7Zm5.216-13.889h-2.22v2.2h2.22Zm0,3.551h-2.22v2.293h2.22Zm3.81-3.551h-2.349v2.2h2.349Zm0,3.551h-2.349v2.293h2.349Z" transform="translate(117.193 3.089)" fill="#ffdb00"/>
      <path id="Path_12" data-name="Path 12" d="M210.4,38.542a66.818,66.818,0,0,0,2.7-6.6c-1.35,0-2.256-.037-2.256-.037l.037-1.572c.018,0,1.128.037,2.718.037h.019c.277-.87.5-1.627.666-2.164.166-.61.259-.961.259-.961l1.535.388c-.019,0-.277,1.073-.795,2.719,1.239-.019,2.607-.056,3.9-.129l.093,1.572c-1.517.092-3.125.129-4.513.148a69.787,69.787,0,0,1-2.94,7.287Zm14.425.5a11.8,11.8,0,0,0-3.291-1.109l.055.851v.129a3.941,3.941,0,0,1-1.165,2.978,3.666,3.666,0,0,1-2.4.888h-.259a3.029,3.029,0,0,1-2.922-3,3.266,3.266,0,0,1,.3-1.369,3.307,3.307,0,0,1,1.591-1.664,6.13,6.13,0,0,1,2.811-.592h.333l-.185-3.163,1.572-.092.185,3.421c.129.019.259.037.37.056a13.045,13.045,0,0,1,3.791,1.294Zm-4.808-.129v-.074l-.074-1.091a2.993,2.993,0,0,0-.407-.019,4.573,4.573,0,0,0-2.09.407,1.828,1.828,0,0,0-.888.906,1.607,1.607,0,0,0-.147.74,1.43,1.43,0,0,0,1.461,1.424h.147a1.94,1.94,0,0,0,1.332-.48,2.307,2.307,0,0,0,.667-1.813Zm2.682-7.952c.739.555,1.7,1.239,2.5,1.738l-.832,1.332a41,41,0,0,1-3.921-2.848l.98-1.221s.537.425,1.277,1Z" transform="translate(128.039 3.084)" fill="#ffdb00"/>
      <path id="Path_13" data-name="Path 13" d="M236.513,28.389l-6.14,6.251c2.4,2.589,4.42,4.7,6.417,7.12l-1.221,1c-2.071-2.534-4.216-4.734-6.843-7.6l-.518-.555,7.194-7.323Z" transform="translate(136.351 3.085)" fill="#ffdb00"/>
      <path id="Path_14" data-name="Path 14" d="M243.6,43.442h-1.628v-9.08c-.518.758-1.035,1.516-1.757,2.4l-.888-1.4a22.289,22.289,0,0,0,4.2-8.489l1.59.444a30.558,30.558,0,0,1-1.516,4.069Zm7.3-9.8V41.02h4.642v1.535H244.705V41.02h4.531V33.641h-5.031V32.125h5.031v-5.16H250.9v5.16h5.289v1.516Z" transform="translate(146.318 3.104)" fill="#ffdb00"/>
      <path id="Path_15" data-name="Path 15" d="M271.373,38.135v2.848H269.82v-.8h-4v1.794a1.3,1.3,0,0,1-.462,1.165,2.391,2.391,0,0,1-1.313.277c-.665,0-1.387-.055-2.2-.129l-.277-1.646a9.224,9.224,0,0,0,2.163.277c.37,0,.5-.129.5-.388v-1.35H258.15v-1.29h6.085v-.8h-7.6V36.8h7.6v-.74h-6.1V34.769h6.1v-.8h-5.179V30.516h5.179v-.8H257.1V28.389h7.139V26.5h1.59v1.886H273.1V29.72h-7.269v.8h5.289v3.458h-5.289v.8h5.548v2h2.183v1.369Zm-7.138-6.38h-3.662v.962h3.662Zm5.362,0h-3.773v.962H269.6Zm.223,4.309h-4v.74h4Zm0,2.034h-4v.8h4Z" transform="translate(156.926 3.083)" fill="#ffdb00"/>
      <path id="Path_16" data-name="Path 16" d="M278.153,34.88l.259-2.719h-2.46l.037-1.572h2.553l.3-3.125,1.553.129-.259,2.959c1.813-.037,3.828-.092,5.326-.167l.093,1.572c-1.591.074-3.7.148-5.566.167l-.24,2.774h.684c1.775,0,3.681-.019,5.216-.056l.019,1.572c-1.535.037-3.459.055-5.234.055H279.6v.093a4.983,4.983,0,0,0-.019.518,4.474,4.474,0,0,0,1.018,3.088,3.394,3.394,0,0,0,2.367,1.091,1.2,1.2,0,0,0,.259,0,3.155,3.155,0,0,0,2.589-1.11,5.206,5.206,0,0,0,1.036-3.366l1.571.019a6.928,6.928,0,0,1-1.4,4.365,4.794,4.794,0,0,1-3.754,1.683c-.019,0-.019-.019-.037-.019h-.333A4.971,4.971,0,0,1,279.43,41.2,5.936,5.936,0,0,1,278,37.081c0-.2,0-.407.019-.628-.813,0-1.516-.019-2.034-.037l.056-1.572C276.563,34.861,277.3,34.88,278.153,34.88Z" transform="translate(166.654 3.1)" fill="#ffdb00"/>
      <path id="Path_17" data-name="Path 17" d="M294.509,40.964a6.427,6.427,0,0,1-1.461-4.457,1.681,1.681,0,0,1,.019-.3l.277-8.1,1.572.056-.277,8.1a1.047,1.047,0,0,0-.019.24,4.928,4.928,0,0,0,1.054,3.4,3.711,3.711,0,0,0,2.57,1.1h.277a3.548,3.548,0,0,0,2.793-1.128,5.038,5.038,0,0,0,1.072-3.366l1.572.019a6.53,6.53,0,0,1-1.479,4.383,5.081,5.081,0,0,1-3.94,1.664h-.019a2.222,2.222,0,0,1-.351-.019,5.138,5.138,0,0,1-3.662-1.59Z" transform="translate(176.219 3.118)" fill="#ffdb00"/>
      <path id="Path_18" data-name="Path 18" d="M307.863,42.333l-1.517-.444c.925-3.125,1.813-6.806,2.46-9.709l.111-.5c-1.3,0-2.146-.037-2.164-.037l.056-1.554s1,.019,2.459.019c.389-1.794.629-2.959.629-2.959l1.535.314s-.2,1.036-.555,2.645c1.331-.019,2.829-.055,4.217-.148l.11,1.572c-1.571.092-3.236.129-4.679.148C309.86,34.695,308.881,38.837,307.863,42.333Zm12.649-2.127.37,1.535a16.584,16.584,0,0,1-3.162.314,14.673,14.673,0,0,1-2.7-.259,2.707,2.707,0,0,1-2.349-2.534,3.309,3.309,0,0,1,1.258-2.422l1.035,1.184a1.8,1.8,0,0,0-.721,1.239c.019.389.222.777,1.109,1a10.829,10.829,0,0,0,2.367.222,13.717,13.717,0,0,0,2.793-.277Zm-.5-5.862a10.527,10.527,0,0,0-3.365,1.942l-.889-1a6.742,6.742,0,0,1,1.591-1c-1.646.056-3.7.2-3.7.2l-.074-1.554c.019,0,3.7-.185,5.844-.185.277,0,.518.019.74.019-.037,1.2-.056,1.535-.056,1.535a.78.78,0,0,0-.092.037Z" transform="translate(217.718 3.053)" fill="#ffdb00"/>
      <path id="Path_19" data-name="Path 19" d="M323.55,33.123a19.754,19.754,0,0,1,.37-3.662l1.553.3a17.089,17.089,0,0,0-.352,3.366,9.338,9.338,0,0,0,2.313,6.6l1.867-1.553,1.018,1.2-2.94,2.459-.518-.462a10.725,10.725,0,0,1-3.311-8.248Zm12.631,4.938a30.046,30.046,0,0,0-2.57-6.732l1.387-.74a31.217,31.217,0,0,1,2.7,7.046Z" transform="translate(217.718 3.144)" fill="#ffdb00"/>
    </g>
    <text id="今の日本の腰痛治療の大きな問題は_腰痛の原因をつきとめ_ないまま漠然とした治療が行われていることです_" data-name="今の日本の腰痛治療の大きな問題は、腰痛の原因をつきとめ ないまま漠然とした治療が行われていることです。" transform="translate(1072 958)" font-size="20" font-family="NotoSansJP-Medium, Noto Sans JP" font-weight="500"><tspan x="0" y="0">痛みの状態は人それぞれです。みんなが効いたから自分も効</tspan><tspan x="0" y="30">くだろうと思ってやった対策がかえって腰痛を悪化させる！</tspan></text>
  </g>
</svg>
