<svg xmlns="http://www.w3.org/2000/svg" width="90" height="591" viewBox="0 0 90 591">
  <g id="Group_2" data-name="Group 2" transform="translate(-2643 -637)">
    <g id="Group_1" data-name="Group 1">
      <g id="Group_1-2" data-name="Group 1" transform="translate(2643 637)">
        <text id="腰_痛_治_療_で_大_切_な" data-name="腰 痛 治 療 で 大 切 な" transform="translate(0 46)" fill="#fff" font-size="40" font-family="NotoSansJP-Black, Noto Sans JP" font-weight="800"><tspan x="0" y="0">信</tspan><tspan x="0" y="42">頼</tspan><tspan x="0" y="84">で</tspan><tspan x="0" y="126">き</tspan><tspan x="0" y="168">る</tspan><tspan x="0" y="210">専</tspan><tspan x="0" y="252">門</tspan><tspan x="0" y="294">医</tspan><tspan x="0" y="336">を</tspan><tspan x="0" y="378">探</tspan><tspan x="0" y="420">し</tspan><tspan x="0" y="462">て</tspan><tspan x="0" y="504">、</tspan></text>
        <text id="ポ_イ_ン_ト_を_聞_き_ま_し_た" data-name="ポ イ ン ト を 聞 き ま し た" transform="translate(50 75)" fill="#fff" font-size="40" font-family="NotoSansJP-Black, Noto Sans JP" font-weight="800"><tspan x="0" y="0">予</tspan><tspan x="0" y="42">約</tspan><tspan x="0" y="84">し</tspan><tspan x="0" y="126">て</tspan><tspan x="0" y="168">、</tspan><tspan x="0" y="210">通</tspan><tspan x="0" y="252">院</tspan><tspan x="0" y="294">し</tspan><tspan x="0" y="336">て</tspan><tspan x="0" y="378">、</tspan><tspan x="0" y="420">大</tspan><tspan x="0" y="462">変</tspan><tspan x="0" y="504">！</tspan></text>
      </g>
    </g>
  </g>
</svg>
