<svg xmlns="http://www.w3.org/2000/svg" viewBox="0 0 43 45.99999"><title>2</title><path d="M43,21.13344A21.50616,21.50616,0,0,0,.00277,20.7901,21.18289,21.18289,0,0,0,15.306,41.37242a.3895.3895,0,0,0,.12112.05611,15.68428,15.68428,0,0,1,2.89061,1.08892c1.26322.63778,2.77316,1.69044,2.7912,3.0984A.3873.3873,0,0,0,21.49978,46h.00107a.3873.3873,0,0,0,.39082-.38414v-.013c.03557-2.73911,5.62552-4.1603,5.68181-4.17433a.38962.38962,0,0,0,.12154-.0564A21.19024,21.19024,0,0,0,43,21.13344Z" style="fill:#ffdb00"/><path d="M17.54732,28.312l5.15186-9.71582a3.55372,3.55372,0,0,0,.44775-1.27442,13.58144,13.58144,0,0,0,.05615-1.35791c0-.24218-.00976-.499-.02783-.77A2.31467,2.31467,0,0,0,23.021,14.48a1.21757,1.21757,0,0,0-.40576-.51807,1.33735,1.33735,0,0,0-.812-.21,1.28985,1.28985,0,0,0-1.3999,1.42822v1.624h-2.856V15.23583a4.21559,4.21559,0,0,1,.33594-1.67969,4.46092,4.46092,0,0,1,.91015-1.37207,4.35237,4.35237,0,0,1,1.35791-.938A4.06978,4.06978,0,0,1,21.831,10.896a4.19455,4.19455,0,0,1,1.918.40576,3.70262,3.70262,0,0,1,1.31641,1.10645,4.6724,4.6724,0,0,1,.75586,1.5957,7.4127,7.4127,0,0,1,.23779,1.9043q0,.728-.02783,1.21777a7.49424,7.49424,0,0,1-.11182.938,4.151,4.151,0,0,1-.28027.896q-.19629.44825-.53174,1.09179L20.90718,28.144H26.059V31H17.54732Z" style="fill:#fff"/></svg>
