<svg xmlns="http://www.w3.org/2000/svg" viewBox="0 0 43 45.99999"><title>3</title><path d="M43,21.13344A21.50616,21.50616,0,0,0,.00277,20.7901,21.18289,21.18289,0,0,0,15.306,41.37242a.3895.3895,0,0,0,.12112.05611,15.68428,15.68428,0,0,1,2.89061,1.08892c1.26322.63778,2.77316,1.69044,2.7912,3.0984A.3873.3873,0,0,0,21.49978,46h.00107a.3873.3873,0,0,0,.39082-.38414v-.013c.03557-2.73911,5.62552-4.1603,5.68181-4.17433a.38962.38962,0,0,0,.12154-.0564A21.19024,21.19024,0,0,0,43,21.13344Z" style="fill:#ffdb00"/><path d="M20.88858,19.46385a3.60427,3.60427,0,0,0,1.77832-.3081q.48926-.30762.48974-1.42774V15.15184a1.39318,1.39318,0,0,0-.37793-1.00781,1.354,1.354,0,0,0-1.022-.39209,1.2056,1.2056,0,0,0-1.07812.47607,1.65206,1.65206,0,0,0-.32178.92383v1.624h-2.856V15.124a4.14677,4.14677,0,0,1,.33594-1.65186,4.02173,4.02173,0,0,1,.92383-1.34423,4.5973,4.5973,0,0,1,1.37207-.896,4.21623,4.21623,0,0,1,1.68017-.33594,3.7309,3.7309,0,0,1,1.9458.46192,4.502,4.502,0,0,1,1.16211.938,5.4815,5.4815,0,0,1,.48975.686,3.23534,3.23534,0,0,1,.33642.812,7.26836,7.26836,0,0,1,.19581,1.12012,15.67689,15.67689,0,0,1,.06982,1.60986q0,1.03638-.042,1.68018a3.37442,3.37442,0,0,1-.22364,1.07812,2.01469,2.01469,0,0,1-.53222.7417,6.45091,6.45091,0,0,1-.96582.67188,5.48188,5.48188,0,0,1,1.022.78418,2.29872,2.29872,0,0,1,.51807.854,4.19433,4.19433,0,0,1,.1958,1.17578q.02782.687.02783,1.75,0,.98072-.042,1.624a8.76567,8.76567,0,0,1-.126,1.07812,3.3127,3.3127,0,0,1-.22412.74219,4.585,4.585,0,0,1-.36377.644,4.47075,4.47075,0,0,1-1.37207,1.30176,4.049,4.049,0,0,1-2.15576.51806,5.03054,5.03054,0,0,1-1.42822-.22412,3.88859,3.88859,0,0,1-1.37207-.728,3.94821,3.94821,0,0,1-1.022-1.31592,4.41454,4.41454,0,0,1-.40576-1.98779v-1.624h2.856V26.772a1.62214,1.62214,0,0,0,.37793,1.106,1.42007,1.42007,0,0,0,2.04394,0,1.70609,1.70609,0,0,0,.37793-1.16211v-2.856a3.76263,3.76263,0,0,0-.09814-.95166,1.09408,1.09408,0,0,0-.34961-.57422,1.39727,1.39727,0,0,0-.686-.27978,7.43359,7.43359,0,0,0-1.13427-.07032Z" style="fill:#fff"/></svg>
