<svg xmlns="http://www.w3.org/2000/svg" viewBox="0 0 43 45.99999"><title>1</title><path d="M43,21.13344A21.50616,21.50616,0,0,0,.00277,20.7901,21.18289,21.18289,0,0,0,15.306,41.37242a.3895.3895,0,0,0,.12112.05611,15.68428,15.68428,0,0,1,2.89061,1.08892c1.26322.63778,2.77316,1.69044,2.7912,3.0984A.3873.3873,0,0,0,21.49978,46h.00107a.3873.3873,0,0,0,.39082-.38414v-.013c.03557-2.73911,5.62552-4.1603,5.68181-4.17433a.38962.38962,0,0,0,.12154-.0564A21.19024,21.19024,0,0,0,43,21.13344Z" style="fill:#ffdb00"/><path d="M21.33614,14.08788l-2.856,2.10009V13.16405l2.856-2.1001h2.856V31h-2.856Z" style="fill:#fff"/></svg>
